Coordinates
version=1
nRows=9
nColumns=63
inDegrees=yes

Units are S.I. units (second, meters, Newtons, ...)
If the header above contains a line with 'inDegrees', this indicates whether rotational values are in degrees (yes) or radians (no).

endheader
time	pelvis_tilt	pelvis_list	pelvis_rotation	pelvis_tx	pelvis_ty	pelvis_tz	hip_flexion_r	hip_adduction_r	hip_rotation_r	knee_angle_r	knee_angle_r_beta	ankle_angle_r	subtalar_angle_r	mtp_angle_r	hip_flexion_l	hip_adduction_l	hip_rotation_l	knee_angle_l	knee_angle_l_beta	ankle_angle_l	subtalar_angle_l	mtp_angle_l	L5_S1_Flex_Ext	L5_S1_Lat_Bending	L5_S1_axial_rotation	L4_L5_Flex_Ext	L4_L5_Lat_Bending	L4_L5_axial_rotation	L3_L4_Flex_Ext	L3_L4_Lat_Bending	L3_L4_axial_rotation	L2_L3_Flex_Ext	L2_L3_Lat_Bending	L2_L3_axial_rotation	L1_L2_Flex_Ext	L1_L2_Lat_Bending	L1_L2_axial_rotation	L1_T12_Flex_Ext	L1_T12_Lat_Bending	L1_T12_axial_rotation	Abs_r3	Abs_r2	Abs_r1	Abs_t1	Abs_t2	neck_flexion	neck_bending	neck_rotation	arm_flex_r	arm_add_r	arm_rot_r	elbow_flex_r	pro_sup_r	wrist_flex_r	wrist_dev_r	arm_flex_l	arm_add_l	arm_rot_l	elbow_flex_l	pro_sup_l	wrist_flex_l	wrist_dev_l
0.000000	0.514978	-4.302078	90.983051	0.229964	0.740402	0.718907	3.953336	-0.101622	-20.547798	12.043271	0.210195	26.412657	16.488649	0.000000	4.889049	-2.856595	18.774961	10.374035	0.181061	20.906696	-13.620199	0.000000	0.138136	0.125251	-1.469384	0.256532	0.166583	-1.561220	0.226943	0.304534	-1.561220	0.157875	0.304534	-1.285711	0.128273	0.255411	-1.193874	0.078931	0.194013	-1.102038	0.986690	1.416861	-8.172271	0.000000	0.000000	14.629460	-2.806989	-2.819919	18.824198	-25.761562	78.674420	85.788827	59.435698	3.647425	-2.710090	22.816852	-25.218442	79.808095	89.071368	87.684618	-24.127466	0.343114
0.016667	0.644246	-4.326935	90.912140	0.230262	0.740496	0.719079	4.041668	0.073631	-20.305479	12.016285	0.209724	26.671084	16.472337	0.000000	5.024151	-3.140898	17.201417	10.668645	0.186203	21.034160	-12.056231	0.000000	0.136233	0.138989	-1.487171	0.252999	0.184856	-1.580119	0.223817	0.337938	-1.580119	0.155701	0.337938	-1.301274	0.126506	0.283427	-1.208326	0.077844	0.215294	-1.115378	0.973100	1.572273	-8.271196	0.000000	0.000000	14.660874	-2.767190	-2.665883	18.708667	-25.921438	79.293995	85.579270	66.996796	3.969495	-4.357868	22.559240	-25.191659	79.182326	89.294180	88.108203	-24.674230	1.041310
0.033333	0.780150	-4.345569	90.879438	0.230453	0.740541	0.719246	4.112240	0.251637	-20.089786	11.976408	0.209028	26.905501	16.459675	0.000000	5.121368	-3.407016	15.877586	10.887586	0.190024	21.187666	-10.661238	0.000000	0.134188	0.154285	-1.512630	0.249200	0.205199	-1.607169	0.220457	0.375128	-1.607169	0.153363	0.375128	-1.323551	0.124607	0.314618	-1.229012	0.076675	0.238987	-1.134472	0.958490	1.745301	-8.412793	0.000000	0.000000	14.688221	-2.738478	-2.484213	18.793232	-26.024705	80.025667	85.447215	73.284952	4.050943	-5.532614	22.302089	-25.158182	78.629643	89.459930	88.109659	-24.986620	1.540124
0.050000	0.920794	-4.358565	90.878273	0.230551	0.740540	0.719404	4.166522	0.430783	-19.897274	11.925205	0.208134	27.118284	16.450803	0.000000	5.183054	-3.655194	14.781224	11.037489	0.192641	21.361808	-9.427534	0.000000	0.132030	0.170850	-1.544132	0.245193	0.227231	-1.640640	0.216912	0.415405	-1.640640	0.150897	0.415405	-1.351115	0.122603	0.348398	-1.254607	0.075442	0.264647	-1.158099	0.943077	1.932691	-8.587998	0.000000	0.000000	14.712720	-2.720144	-2.279588	19.052376	-26.078957	80.847730	85.384919	78.407450	3.913162	-6.288297	22.047513	-25.119056	78.146350	89.574536	87.753751	-25.095481	1.860235
0.066667	1.064284	-4.366510	90.901970	0.230569	0.740498	0.719548	4.205982	0.609456	-19.724500	11.864244	0.207070	27.311809	16.445859	0.000000	5.211562	-3.885677	13.890085	11.124985	0.194168	21.551183	-8.347436	0.000000	0.129790	0.188397	-1.580047	0.241033	0.250568	-1.678800	0.213232	0.458069	-1.678800	0.148337	0.458069	-1.382541	0.120523	0.384180	-1.283788	0.074162	0.291827	-1.185035	0.927078	2.131188	-8.787745	0.000000	0.000000	14.735590	-2.711477	-2.056688	19.460579	-26.091786	81.738476	85.384641	82.471572	3.577546	-6.678888	21.797628	-25.075329	77.728749	89.643919	87.105244	-25.031660	2.022318
0.083333	1.208724	-4.369987	90.943853	0.230522	0.740421	0.719674	4.232088	0.786043	-19.568021	11.795091	0.205863	27.488452	16.444982	0.000000	5.209248	-4.098708	13.181925	11.156706	0.194721	21.750385	-7.413258	0.000000	0.127498	0.206639	-1.618745	0.236777	0.274830	-1.719916	0.209467	0.502421	-1.719916	0.145718	0.502421	-1.416402	0.118395	0.421378	-1.315230	0.072853	0.320083	-1.214058	0.910708	2.337539	-9.002972	0.000000	0.000000	14.758049	-2.711765	-1.820192	19.992323	-26.070785	82.676200	85.438639	85.584601	3.065489	-6.758359	21.554547	-25.028046	77.373144	89.674001	86.228904	-24.826000	2.047052
0.100000	1.352219	-4.369584	90.997249	0.230424	0.740312	0.719779	4.246310	0.958932	-19.424392	11.719314	0.204541	27.650590	16.448312	0.000000	5.178466	-4.294532	12.634500	11.139284	0.194417	21.954011	-6.617315	0.000000	0.125185	0.225287	-1.658596	0.232481	0.299631	-1.762258	0.205667	0.547762	-1.762258	0.143074	0.547762	-1.451271	0.116247	0.459405	-1.347609	0.071531	0.348969	-1.243947	0.894184	2.548489	-9.224613	0.000000	0.000000	14.781316	-2.720299	-1.574779	20.622089	-26.023548	83.639195	85.539172	87.853819	2.398385	-6.580679	21.320386	-24.978255	77.075835	89.670700	85.189494	-24.509349	1.955112
0.116667	1.492873	-4.365884	91.055483	0.230289	0.740177	0.719857	4.250116	1.126510	-19.290169	11.638478	0.203130	27.800599	16.455986	0.000000	5.121570	-4.473394	12.225564	11.079349	0.193371	22.156656	-5.951923	0.000000	0.122881	0.244054	-1.697971	0.228201	0.324591	-1.804094	0.201880	0.593392	-1.804094	0.140440	0.593392	-1.485724	0.114107	0.497674	-1.379601	0.070214	0.378039	-1.273478	0.877723	2.760784	-9.443604	0.000000	0.000000	14.806608	-2.736367	-1.325128	21.324358	-25.957668	84.605753	85.678497	89.386509	1.597629	-6.199819	21.097257	-24.927002	76.833127	89.639937	84.051782	-24.112550	1.767177
0.133333	1.628791	-4.359475	91.111881	0.230132	0.740021	0.719904	4.244975	1.287162	-19.161911	11.554150	0.201658	27.940855	16.468144	0.000000	5.040915	-4.635538	11.932873	10.983534	0.191699	22.352916	-5.409397	0.000000	0.120615	0.262652	-1.735239	0.223994	0.349327	-1.843692	0.198158	0.638612	-1.843692	0.137851	0.638612	-1.518334	0.112003	0.535600	-1.409882	0.068919	0.406848	-1.301430	0.861541	2.971171	-9.650881	0.000000	0.000000	14.835146	-2.759259	-1.075919	22.073611	-25.880739	85.554168	85.848874	90.289954	0.684614	-5.669750	20.887276	-24.875333	76.641322	89.587632	82.880530	-23.666450	1.503923
